<svg xmlns:xlink="http://www.w3.org/1999/xlink" xmlns="http://www.w3.org/2000/svg" class="icon-dw-logo" width="105"  height="62" ><defs><symbol id="icon-dw-logo" viewBox="0 0 82 48" alt="DreamWorks" fill="#052C6F">
<g id="XMLID_00000045580301596401577810000014653136601563245185_" fill="#fff">
<path id="XMLID_00000119119357800382192990000008445169681337110961_" class="st0" d="M40.3,25.9C40.3,25.9,40.3,25.9,40.3,25.9
		c-0.1-0.1-0.2-0.6-0.4-0.9c-0.1,0.3-0.2,1.3-0.2,1.5c0,0,0,0.1,0,0.1c0,0.2-0.2,0.2-0.4,0.2c-0.1,0-0.2,0-0.3,0c0,0,0,0,0,0
		c0,0.1-0.1,0.2-0.1,0.3c-0.2,0.5-0.4,1-0.2,1.5c0.6-0.4,1.3-1,2.2-1.4c-0.1-0.2-0.2-0.4-0.3-0.7C40.5,26.3,40.4,26.1,40.3,25.9z" fill="#fff"></path>
<path id="XMLID_00000101800609947895800240000002761577594953150394_" class="st0" d="M33.9,18.4c0.6,0.8,1.2,1.6,1.6,2.4
		c0,0,0,0,0,0c0-0.1,0-0.1,0.1-0.1c0.1,0,0.1,0,0.1,0.1c0,0.1,0.1,0.1,0.1,0.2c0.1,0.1,0.1,0.1,0.2,0.2c0.1,0,0.2,0.1,0.3,0.1
		c0.1,0,0.1,0,0.2,0.1c0.1,0,0.3,0.1,0.4,0.2c0.1,0.1,0.1,0.1,0.2,0.2c0.1,0.1,0.2,0.1,0.2,0.2c0.4,0.2,0.9,0.3,1.4,0.3
		c0.2-0.4,0.6-0.7,1.1-0.6c0.4,0,0.7,0.2,0.9,0.4c0.8-0.1,1.4-0.6,1.9-1.1c0.1-0.1,0.2-0.2,0.3-0.3l-0.3-0.4c-0.2,0-0.3,0-0.4,0
		c-0.1,0-0.3,0-0.4-0.1c-0.1-0.1-0.2-0.1-0.2-0.3c0-0.1,0-0.1,0-0.2c0-0.1-0.1-0.1-0.1-0.1c0,0,0-0.1,0-0.1c0,0,0-0.1,0.1-0.1
		c0,0,0,0,0,0c-0.1,0-0.1-0.1-0.1-0.2c0-0.1,0.1-0.1,0.1-0.2c0,0,0-0.1-0.1-0.1c-0.1-0.1-0.1-0.1-0.2-0.2c0-0.1,0.2-0.3,0.3-0.4
		c0.1-0.1,0.1-0.2,0.1-0.3c0-0.1,0-0.2,0-0.4c0-0.1,0-0.1,0-0.2c-0.1,0.2-0.3,0.2-0.3,0.2c0.2-0.3,0.2-0.3,0.2-0.5
		c0-0.3,0.2-0.5,0.2-0.5c-0.2-0.1-0.3,0.1-0.3,0.1c0-0.6,0.6-0.5,0.6-0.5c-0.3-0.2-0.3-0.5-0.3-0.5c0.1,0.1,0.2,0.2,0.3,0.2
		c0.1,0,0.2,0.1,0.4,0.1c0.1,0,0.2,0,0.4,0c0.2,0,0.3-0.1,0.5-0.1c0.9-0.3,1.4,0.2,1.4,0.2c-0.1-0.2-0.1-0.3-0.1-0.3
		c0,0.1,0.1,0.1,0.2,0.2c0.1,0.1,0.4,0.3,0.6,0.4c0.2,0.2,0.3,0.5,0.3,0.5c0.3,0,0.4,0.2,0.5,0.3C46,17.1,46,17.6,46,17.7
		c0,0.2,0,0.4,0,0.7c-0.1,0.5-0.5,0.9-0.9,1.2c-0.1,0.1-0.2,0.1-0.3,0.2c0,0,0,0,0,0.1c0,0,0.1,0,0.1-0.1c0.1,0,0.4-0.1,0.4,0.1
		c0,0.1,0.1,0.3,0.1,0.4c0,0,0.1,0.1,0.2,0.2c0.1,0.1,0.1,0.1,0.2,0.2c0.1,0.2,0.2,0.3,0.3,0.5c0.1,0.3,0.2,0.5,0.3,0.8
		c0.1,0.4,0.2,0.8,0.2,1.2c0,0.3,0.1,0.6,0.1,0.9c0,0.1,0,0.3,0,0.4c0.7-0.8,1.4-1.7,1.9-2.7c0.9-1.8,1.4-3.9,1.4-5.9
		c0.1-7.8-6-14.8-15.5-13.2c-1.7,0.3-3.4,1-4.9,1.8c-1.6,0.9-3.1,2.2-4.1,3.8c-0.6,0.8-1,1.6-1.5,2.5c1.2,0.6,3,1.5,4.9,2.9
		C30.9,15.1,32.5,16.6,33.9,18.4z" fill="#fff"></path>
<path id="XMLID_00000062191374077325404270000005445769340341443504_" class="st0" d="M36.7,22.8c-0.1,0-0.1,0-0.2,0
		c0.1,0.2,0.1,0.4,0.2,0.5c0,0,0-0.1,0.1-0.1c0.1-0.1,0.3,0,0.4,0.1c0.3,0.2,0.7,0.3,1.1,0.3c0-0.1,0.1-0.3,0.1-0.4
		C38.2,23,38,23,37.9,22.9c-0.2-0.1-0.4-0.1-0.6-0.2C37.1,22.7,36.9,22.8,36.7,22.8z" fill="#fff"></path>
<path id="XMLID_00000155848348268344024000000017637545800803923871_" class="st0" d="M41,37.8c10.4,0,18.9-8.4,18.9-18.9
		S51.4,0,41,0c-4.1,0-7.9,1.3-11,3.6c0,0,0,0,0.1,0c0.9-0.6,1.8-1,2.8-1.4c0.3-0.1,0.6-0.2,0.9-0.3c2.9-1,6-1.3,8.9-0.8
		c1.2,0.2,2.3,0.5,3.4,1c3.2,1.3,6,3.6,7.7,6.7c1.8,3.3,2.4,7.5,1.4,11.2c-0.6,2.2-1.7,4.2-3.2,5.9c-1.5,1.8-3.4,3.2-5.5,4.2
		c-2.1,1-4.5,1.6-6.9,1.6c-0.1,0.2-0.1,0.4-0.2,0.6c0,0.1,0,0.1,0,0.2c-0.1,0.2-0.2,0.1-0.4,0.1c-0.1,0-0.2,0-0.2,0
		c-0.2,0.2-0.3,0.4-0.4,0.6l0,0c-0.2,0.4-0.3,0.6-0.2,1c0,0.1,0.1,0.2,0,0.4c0,0.1,0,0.2-0.1,0.3c-0.1,0.1-0.2,0.1-0.4,0.1
		c-0.3,0-0.5,0-0.7,0.1c0,0,0,0,0,0c-0.3,0.1-0.6,0.3-0.9,0.4c-0.3,0.1-0.6,0.1-0.9,0c0,0-0.1-0.1-0.1-0.1c0,0-0.1,0-0.1,0
		c-0.2,0-0.3-0.1-0.3-0.2c0-0.1,0-0.2,0-0.2c0-0.1,0.1-0.1,0.2-0.1c0.1,0,0.1,0,0.2,0c0.1,0,0.2,0,0.3-0.1c0.2-0.1,0.4-0.2,0.5-0.4
		c0.1-0.1,0.3-0.3,0.5-0.4c0.1-0.1,0.3-0.2,0.3-0.3c0.1-0.1,0.4-0.4,0.6-0.8c0.1-0.1,0.2-0.4,0.3-0.7c0,0-0.1,0-0.1-0.1
		c-0.1-0.1-0.3-0.2-0.2-0.3c0-0.1,0.1-0.2,0.1-0.3c-3.9-0.5-6.1-2.2-6.1-2.2c1.3,0.3,2.6,0.4,3.9,0.4c0,0-0.1-0.1-0.1-0.1
		c0,0,0-0.1,0-0.2c0-0.1,0-0.1,0.1-0.1c0,0,0,0,0,0c0,0,0.1,0,0.1,0c0.1,0,0.2,0,0.4,0c0.1,0,0.2,0,0.3,0c0,0,0.1,0,0.1,0
		c0.1,0,0.1,0,0.2-0.1c0.1,0,0.1-0.1,0.2-0.1c0.2-0.1,0.3-0.2,0.4-0.3c0.3-0.2,0.4-0.4,0.6-0.7c0,0,0,0,0-0.1
		c0.1-0.4,0.2-0.8,0.3-1.1c0,0,0-0.1,0-0.2c0,0,0,0,0,0c-0.1-0.1-0.3-0.2-0.2-0.4c0-0.1,0.1-0.1,0.1-0.3c0-0.1,0.1-0.4,0.2-0.6
		c0.1-0.2,0.1-0.5,0.2-0.7c-0.1,0-0.2,0-0.3,0.1c-0.2,0.1-0.4,0.2-0.6,0.3c0,0.2,0.1,0.4,0.1,0.5c0,0.1,0,0.1,0,0.2
		c0,0.1-0.1,0.1-0.2,0.1c0,0,0,0-0.1,0c0,0,0,0,0,0c-0.1,0-0.2-0.1-0.3-0.2c-0.1-0.2-0.1-0.4-0.2-0.7c0,0-0.1-0.1-0.1-0.1
		c-0.2,0-0.3-0.2-0.3-0.2c0,0,0,0,0,0C36,24.4,36,24.2,36,24.2c-0.1,0-0.1-0.1-0.2-0.2c-0.1-0.2,0.1-0.4,0.3-0.4c0,0,0,0,0.1,0
		c-0.1-0.3-0.2-0.5-0.3-0.8c-0.2-0.1-0.2-0.2-0.2-0.2c-0.2,0-0.2-0.2-0.2-0.2c-0.2,0-0.3-0.3-0.3-0.3C35,22,35,21.9,35,21.8
		c0-0.1,0.1-0.1,0.2-0.2c0,0,0,0,0,0c0.1,0,0.1,0,0.2-0.1c-0.5-1-1.1-1.9-1.9-2.9c-1.4-1.8-3-3.3-4.8-4.7c-1.6-1.2-3.2-2.2-4.8-2.9
		c-0.3,0.7-0.6,1.3-0.8,2c-0.6,1.8-0.9,3.7-0.9,5.6c0,0.1,0,0.1,0,0.2C22.1,29.3,30.6,37.8,41,37.8z" fill="#fff"></path>
<path id="XMLID_00000013188190012355684120000009483095052247453375_" class="st0" d="M43.1,23.3c-0.3,0.1-0.7,0.2-1,0.3
		c0.4,0.5,0.8,1,1.2,1.5c0,0,0,0,0,0c0,0,0.1,0.1,0.3,0.3c0-0.2,0.1-0.5,0.1-0.7C43.5,24.3,43.4,23.7,43.1,23.3
		C43.1,23.3,43.1,23.3,43.1,23.3z" fill="#fff"></path>
<path id="XMLID_00000134966939948728937200000016942871393541317813_" class="st0" d="M79.6,44.6l-0.3-0.1C78.5,44.3,78,44,78,43.6
		c0-0.4,0.5-0.7,1.1-0.7c1,0,1.5,0.6,1.7,1.1l0.6-0.1c-0.1-0.6-0.2-1-0.3-1.3c-0.2,0-0.4-0.1-0.7-0.1c-0.4-0.1-0.8-0.1-1.2-0.1
		c-2,0-3.1,0.8-3.1,1.7c0,0.9,1.2,1.3,2.2,1.6l0.2,0.1c0.8,0.2,1.3,0.5,1.3,1c0,0.5-0.5,0.8-1.2,0.8c-1.3,0-2-0.9-2.3-1.4l-0.6,0.1
		c0.1,0.4,0.2,0.8,0.3,1.1l0,0.2c-0.1,0-0.2,0-0.2,0c-0.3-0.1-0.6-0.2-1.1-0.6c-0.8-0.7-1.6-1.5-2.4-2.3c0.5-0.4,1.2-0.8,1.8-1.2
		c0.7-0.4,1-0.4,1.8-0.5v-0.3h-3.4v0.3l0.5,0c0.3,0,0.2,0.2,0,0.4c-0.7,0.6-1.5,1.2-2.4,1.9v-1.3c0-0.9,0.1-1,0.9-1v-0.3H68v0.3
		c0.9,0,1,0.1,1,1v2.8c0,0.3,0,0.5-0.1,0.7c-0.1,0.2-0.4,0.3-0.6,0.2c-0.3,0-0.5-0.2-0.7-0.4c-0.2-0.2-0.4-0.4-0.6-0.6
		c-0.4-0.4-0.8-1-1-1.2c0.9-0.2,1.6-0.7,1.6-1.4c0-0.5-0.4-0.9-0.9-1.1c-0.5-0.2-1.2-0.3-2.1-0.3h-4l0.1,0.3c0.9,0,0.9,0.1,0.9,1V45
		c0-1.6-2-2.7-4.4-2.7c-1.9,0-2.9,0.6-3.6,1.3c0.4-0.8,0.7-1.4,0.8-1.4c0.6-1,0.8-1,1.8-1.1v-0.4h-4.2v0.4l0.7,0
		c0.8,0,0.8,0.1,0.6,0.8c-0.2,0.7-0.9,2.2-1.5,3.5l0-0.1l-2.7-4.7h-1.2l-2.3,4.7l0,0.1l-1.7-3.7c-0.2-0.5-0.2-0.5,0.5-0.6l0.6,0
		v-0.4l-5.5,0v0.4c0.8,0.1,1.1,0.1,1.6,1l0.2,0.4h-2.6l-2,3.3L34,42.5l-3,0v0.3c1,0.1,1.1,0.2,1,1.2l-0.1,1.7
		c-0.1,0.8-0.1,1.2-0.2,1.4c0,0.1,0,0.2-0.1,0.2c-0.1,0-0.3-0.3-0.5-0.6c-0.5-0.8-1-1.8-1.5-2.8l-0.8-1.6l-0.9,0.1l-2.5,4.3
		c0,0-0.1,0.1-0.1,0.1c-0.1,0.1-0.2,0.2-0.3,0.3c-0.3,0.2-1,0.2-1.5,0.2c-0.4,0-0.7,0-0.9-0.1c-0.2-0.1-0.3-0.3-0.3-0.7v-1.3H23
		c1.1,0,1.1,0,1.2,0.8h0.6v-2h-0.6c-0.1,0.6-0.2,0.7-1.2,0.7h-0.6v-1.6c0-0.3,0-0.3,0.5-0.3h0.2c0.7,0,1.1,0,1.3,0.2
		c0.2,0.1,0.3,0.4,0.5,0.8l0.6,0c-0.1-0.6-0.1-1.2-0.1-1.4h-6v0.3c0.8,0,0.9,0.2,0.9,1v2.7c0,0.6-0.1,0.8-0.4,0.9
		c-0.1,0-0.3,0-0.4,0c-0.1,0-0.2-0.1-0.3-0.2c-0.2-0.2-0.5-0.4-0.9-0.9c-0.4-0.4-0.8-1-1-1.2c0.9-0.2,1.6-0.7,1.6-1.4
		c0-0.5-0.4-0.9-0.9-1.1c-0.5-0.2-1.1-0.3-2.1-0.3l-4.1,0c-0.3-0.3-0.6-0.6-1-0.8c-1.2-0.7-3-1-5.2-1H0.3v0.4
		c1.2,0.1,1.3,0.1,1.3,1.3v3.7c0,1.2-0.1,1.3-1.4,1.4v0.4h4.6c4.1,0,7.5-1.2,7.5-3.9c0-0.4-0.1-0.8-0.3-1.1h0.1c0,0,0.2,0,0.3,0
		c0,0,0.1,0,0.2,0.1c0.2,0.1,0.2,0.4,0.2,0.9v2.7c0,0.9-0.1,1-1,1v0.3h3.9v-0.3c-0.9-0.1-1-0.1-1-1v-1H15c0.2,0,0.4,0.1,0.5,0.3
		c0.4,0.7,0.9,1.4,1.6,1.8c0.5,0.2,1,0.3,1.6,0.3c0.1,0,5.4,0,5.4,0h1.4H27v-0.3l-0.4,0c-0.6,0-0.6-0.2-0.4-0.5l0.4-0.8h2l0.4,0.8
		c0.2,0.3,0.1,0.4-0.3,0.5l-0.4,0v0.3h2.3h1.6h1.6v-0.3c-0.8,0-1.1-0.2-1.2-0.5c-0.1-0.3-0.1-0.7,0-1.4l0.1-1.8h0l2.4,3.9h0.6
		l2.6-4.2h0.1l0,2.9c0,0.9,0,1-1,1v0.3l4,0v-0.3c-0.9-0.1-1-0.1-1-1.1l-0.1-2.8c0-0.8,0-0.9,0.6-1l2.6,5.1h1.4l2.4-4.5h0l2.6,4.5
		h1.4c0.5-1.1,1-2.1,1.5-3c0,0.1,0,0.2,0,0.2c0,1.5,1.7,2.8,4.3,2.8c2.5,0,4.3-1.2,4.4-2.9v1.5c0,0.9-0.1,1-1,1v0.3h4.1v-0.3
		c-0.9,0-1-0.1-1-1v-1h0.2c0.2,0,0.4,0.1,0.5,0.3c0.3,0.5,0.6,0.9,1,1.3c0.4,0.4,0.9,0.6,1.4,0.7c0.3,0,0.5,0,0.8,0c0,0,0.2,0,0.5,0
		c0,0,0,0,0,0c0.1,0,0.6,0,0.8,0H72v-0.3c-0.9,0-1-0.1-1-1v-1.3h0c0.9,0.9,2.2,2.1,2.7,2.6h2.5h0.6c0.3,0.1,0.8,0.1,1.3,0.1l0,0
		c0.1,0,0.3,0,0.4,0c2,0,3.3-0.7,3.3-1.7C81.8,45.3,80.8,44.9,79.6,44.6z M5.9,47.4c-0.9,0-1.3-0.2-1.3-1.2v-4.3
		c0-0.3,0-0.5,0.1-0.6c0.1,0,0.4-0.1,0.8-0.1c1.5,0,3.5,0.7,3.5,3C9,46.3,7.5,47.4,5.9,47.4z M16,45.1c-0.2,0.1-0.5,0.1-0.9,0.1
		h-0.2v-1.9c0-0.3,0-0.4,0.6-0.4c0.5,0,1.2,0.3,1.2,1.1C16.7,44.4,16.5,44.8,16,45.1z M26.8,45.8l0.8-1.6h0l0.8,1.6H26.8z
		 M57.2,47.5c-1.3,0-1.9-1.3-1.9-2.4c0-1.4,0.9-2.4,1.9-2.4c1.1,0,2,0.8,2,2.4C59.2,46.3,58.3,47.5,57.2,47.5z M64.8,45.1
		c-0.2,0.1-0.5,0.1-1,0.1h-0.2v-1.9c0-0.3,0-0.4,0.6-0.4c0.5,0,1.3,0.4,1.3,1.1C65.5,44.4,65.3,44.8,64.8,45.1z" fill="#fff"></path>
</g>
</symbol></defs><use xlink:href="#icon-dw-logo" fill="#FFFFFF"></use></svg>